<mxfile host="app.diagrams.net" agent="Mozilla/5.0 (Windows NT 10.0; Win64; x64) AppleWebKit/537.36 (KHTML, like Gecko) Chrome/131.0.0.0 Safari/537.36" version="24.9.0">
  <diagram name="Page-1" id="P6XxWo3ksdpB2h6hkMWX">
    <mxGraphModel dx="1500" dy="746" grid="1" gridSize="10" guides="1" tooltips="1" connect="1" arrows="1" fold="1" page="1" pageScale="1" pageWidth="850" pageHeight="1100" math="0" shadow="0">
      <root>
        <mxCell id="0" />
        <mxCell id="1" parent="0" />
        <mxCell id="bUICLIJ8Ef5RBGcrAFCb-1" value="USER" style="rounded=0;whiteSpace=wrap;html=1;" vertex="1" parent="1">
          <mxGeometry x="360" y="450" width="120" height="60" as="geometry" />
        </mxCell>
        <mxCell id="bUICLIJ8Ef5RBGcrAFCb-2" value="reports" style="rhombus;whiteSpace=wrap;html=1;rounded=0;" vertex="1" parent="1">
          <mxGeometry x="580" y="440" width="80" height="80" as="geometry" />
        </mxCell>
        <mxCell id="bUICLIJ8Ef5RBGcrAFCb-4" value="INCIDENT" style="whiteSpace=wrap;html=1;rounded=0;" vertex="1" parent="1">
          <mxGeometry x="720" y="450" width="120" height="60" as="geometry" />
        </mxCell>
        <mxCell id="bUICLIJ8Ef5RBGcrAFCb-6" value="has" style="rhombus;whiteSpace=wrap;html=1;rounded=0;" vertex="1" parent="1">
          <mxGeometry x="940" y="440" width="80" height="80" as="geometry" />
        </mxCell>
        <mxCell id="bUICLIJ8Ef5RBGcrAFCb-8" value="POLICE-REPORT" style="whiteSpace=wrap;html=1;rounded=0;" vertex="1" parent="1">
          <mxGeometry x="1080" y="450" width="120" height="60" as="geometry" />
        </mxCell>
        <mxCell id="bUICLIJ8Ef5RBGcrAFCb-10" value="cause by" style="rhombus;whiteSpace=wrap;html=1;rounded=0;" vertex="1" parent="1">
          <mxGeometry x="740" y="300" width="80" height="80" as="geometry" />
        </mxCell>
        <mxCell id="bUICLIJ8Ef5RBGcrAFCb-12" value="CRIMINAL" style="whiteSpace=wrap;html=1;rounded=0;" vertex="1" parent="1">
          <mxGeometry x="720" y="150" width="120" height="60" as="geometry" />
        </mxCell>
        <mxCell id="bUICLIJ8Ef5RBGcrAFCb-14" value="recorded by" style="rhombus;whiteSpace=wrap;html=1;rounded=0;" vertex="1" parent="1">
          <mxGeometry x="1275" y="440" width="80" height="80" as="geometry" />
        </mxCell>
        <mxCell id="bUICLIJ8Ef5RBGcrAFCb-16" value="OFFICER" style="whiteSpace=wrap;html=1;rounded=0;" vertex="1" parent="1">
          <mxGeometry x="1430" y="448" width="120" height="60" as="geometry" />
        </mxCell>
        <mxCell id="bUICLIJ8Ef5RBGcrAFCb-18" value="" style="edgeStyle=entityRelationEdgeStyle;fontSize=12;html=1;endArrow=ERoneToMany;rounded=0;entryX=1;entryY=0.5;entryDx=0;entryDy=0;exitX=0;exitY=0.5;exitDx=0;exitDy=0;" edge="1" parent="1" source="bUICLIJ8Ef5RBGcrAFCb-4" target="bUICLIJ8Ef5RBGcrAFCb-1">
          <mxGeometry width="100" height="100" relative="1" as="geometry">
            <mxPoint x="700" y="570" as="sourcePoint" />
            <mxPoint x="800" y="470" as="targetPoint" />
            <Array as="points">
              <mxPoint x="720" y="480" />
            </Array>
          </mxGeometry>
        </mxCell>
        <mxCell id="bUICLIJ8Ef5RBGcrAFCb-19" value="M" style="text;html=1;align=center;verticalAlign=middle;resizable=0;points=[];autosize=1;strokeColor=none;fillColor=none;" vertex="1" parent="1">
          <mxGeometry x="555" y="448" width="30" height="30" as="geometry" />
        </mxCell>
        <mxCell id="bUICLIJ8Ef5RBGcrAFCb-20" value="1" style="text;html=1;align=center;verticalAlign=middle;resizable=0;points=[];autosize=1;strokeColor=none;fillColor=none;" vertex="1" parent="1">
          <mxGeometry x="645" y="448" width="30" height="30" as="geometry" />
        </mxCell>
        <mxCell id="bUICLIJ8Ef5RBGcrAFCb-21" value="" style="edgeStyle=entityRelationEdgeStyle;fontSize=12;html=1;endArrow=ERmandOne;startArrow=ERmandOne;rounded=0;entryX=0;entryY=0.5;entryDx=0;entryDy=0;exitX=1;exitY=0.5;exitDx=0;exitDy=0;" edge="1" parent="1" source="bUICLIJ8Ef5RBGcrAFCb-4" target="bUICLIJ8Ef5RBGcrAFCb-8">
          <mxGeometry width="100" height="100" relative="1" as="geometry">
            <mxPoint x="750" y="530" as="sourcePoint" />
            <mxPoint x="850" y="430" as="targetPoint" />
          </mxGeometry>
        </mxCell>
        <mxCell id="bUICLIJ8Ef5RBGcrAFCb-22" value="1" style="text;html=1;align=center;verticalAlign=middle;resizable=0;points=[];autosize=1;strokeColor=none;fillColor=none;" vertex="1" parent="1">
          <mxGeometry x="915" y="448" width="30" height="30" as="geometry" />
        </mxCell>
        <mxCell id="bUICLIJ8Ef5RBGcrAFCb-23" value="1" style="text;html=1;align=center;verticalAlign=middle;resizable=0;points=[];autosize=1;strokeColor=none;fillColor=none;" vertex="1" parent="1">
          <mxGeometry x="1015" y="448" width="30" height="30" as="geometry" />
        </mxCell>
        <mxCell id="bUICLIJ8Ef5RBGcrAFCb-24" value="M" style="text;html=1;align=center;verticalAlign=middle;resizable=0;points=[];autosize=1;strokeColor=none;fillColor=none;" vertex="1" parent="1">
          <mxGeometry x="1245" y="440" width="30" height="30" as="geometry" />
        </mxCell>
        <mxCell id="bUICLIJ8Ef5RBGcrAFCb-25" value="1" style="text;html=1;align=center;verticalAlign=middle;resizable=0;points=[];autosize=1;strokeColor=none;fillColor=none;" vertex="1" parent="1">
          <mxGeometry x="1355" y="440" width="30" height="30" as="geometry" />
        </mxCell>
        <mxCell id="bUICLIJ8Ef5RBGcrAFCb-27" value="" style="edgeStyle=entityRelationEdgeStyle;fontSize=12;html=1;endArrow=ERoneToMany;rounded=0;" edge="1" parent="1">
          <mxGeometry width="100" height="100" relative="1" as="geometry">
            <mxPoint x="1700" y="792.2856794084821" as="sourcePoint" />
            <mxPoint x="1710" y="780" as="targetPoint" />
            <Array as="points">
              <mxPoint x="1430" y="480" />
              <mxPoint x="1150" y="800" />
              <mxPoint x="1110" y="800" />
              <mxPoint x="1140" y="880" />
            </Array>
          </mxGeometry>
        </mxCell>
        <mxCell id="bUICLIJ8Ef5RBGcrAFCb-48" value="" style="edgeStyle=entityRelationEdgeStyle;fontSize=12;html=1;endArrow=ERoneToMany;rounded=0;entryX=0.5;entryY=0;entryDx=0;entryDy=0;exitX=0.5;exitY=1;exitDx=0;exitDy=0;" edge="1" parent="1" source="bUICLIJ8Ef5RBGcrAFCb-10" target="bUICLIJ8Ef5RBGcrAFCb-4">
          <mxGeometry width="100" height="100" relative="1" as="geometry">
            <mxPoint x="880" y="450" as="sourcePoint" />
            <mxPoint x="980" y="350" as="targetPoint" />
            <Array as="points">
              <mxPoint x="770" y="380" />
              <mxPoint x="810" y="380" />
            </Array>
          </mxGeometry>
        </mxCell>
        <mxCell id="bUICLIJ8Ef5RBGcrAFCb-49" value="" style="edgeStyle=entityRelationEdgeStyle;fontSize=12;html=1;endArrow=ERoneToMany;rounded=0;exitX=0.5;exitY=0;exitDx=0;exitDy=0;entryX=0.5;entryY=1;entryDx=0;entryDy=0;" edge="1" parent="1" source="bUICLIJ8Ef5RBGcrAFCb-10" target="bUICLIJ8Ef5RBGcrAFCb-12">
          <mxGeometry width="100" height="100" relative="1" as="geometry">
            <mxPoint x="880" y="180" as="sourcePoint" />
            <mxPoint x="980" y="80" as="targetPoint" />
          </mxGeometry>
        </mxCell>
        <mxCell id="bUICLIJ8Ef5RBGcrAFCb-50" value="M" style="text;html=1;align=center;verticalAlign=middle;resizable=0;points=[];autosize=1;strokeColor=none;fillColor=none;" vertex="1" parent="1">
          <mxGeometry x="765" y="258" width="30" height="30" as="geometry" />
        </mxCell>
        <mxCell id="bUICLIJ8Ef5RBGcrAFCb-51" value="M" style="text;html=1;align=center;verticalAlign=middle;resizable=0;points=[];autosize=1;strokeColor=none;fillColor=none;" vertex="1" parent="1">
          <mxGeometry x="775" y="378" width="30" height="30" as="geometry" />
        </mxCell>
        <mxCell id="bUICLIJ8Ef5RBGcrAFCb-52" value="" style="edgeStyle=entityRelationEdgeStyle;fontSize=12;html=1;endArrow=ERoneToMany;rounded=0;entryX=1;entryY=0.5;entryDx=0;entryDy=0;exitX=0;exitY=0.5;exitDx=0;exitDy=0;" edge="1" parent="1" source="bUICLIJ8Ef5RBGcrAFCb-14" target="bUICLIJ8Ef5RBGcrAFCb-8">
          <mxGeometry width="100" height="100" relative="1" as="geometry">
            <mxPoint x="980" y="700" as="sourcePoint" />
            <mxPoint x="1080" y="600" as="targetPoint" />
          </mxGeometry>
        </mxCell>
        <mxCell id="bUICLIJ8Ef5RBGcrAFCb-53" value="" style="edgeStyle=entityRelationEdgeStyle;fontSize=12;html=1;endArrow=ERmandOne;startArrow=ERmandOne;rounded=0;entryX=0;entryY=0.5;entryDx=0;entryDy=0;exitX=-0.081;exitY=1.305;exitDx=0;exitDy=0;exitPerimeter=0;" edge="1" parent="1" source="bUICLIJ8Ef5RBGcrAFCb-25" target="bUICLIJ8Ef5RBGcrAFCb-16">
          <mxGeometry width="100" height="100" relative="1" as="geometry">
            <mxPoint x="980" y="700" as="sourcePoint" />
            <mxPoint x="1080" y="600" as="targetPoint" />
          </mxGeometry>
        </mxCell>
        <mxCell id="bUICLIJ8Ef5RBGcrAFCb-54" value="&lt;b&gt;&lt;u&gt;&lt;font color=&quot;#ff3333&quot;&gt;User_id&lt;/font&gt;&lt;/u&gt;&lt;/b&gt;" style="ellipse;whiteSpace=wrap;html=1;align=center;" vertex="1" parent="1">
          <mxGeometry x="300" y="350" width="100" height="40" as="geometry" />
        </mxCell>
        <mxCell id="bUICLIJ8Ef5RBGcrAFCb-55" value="contact&lt;div&gt;&lt;br&gt;&lt;/div&gt;" style="ellipse;whiteSpace=wrap;html=1;align=center;fontStyle=4;" vertex="1" parent="1">
          <mxGeometry x="370" y="280" width="100" height="40" as="geometry" />
        </mxCell>
        <mxCell id="bUICLIJ8Ef5RBGcrAFCb-56" value="name" style="ellipse;whiteSpace=wrap;html=1;align=center;fontStyle=4;" vertex="1" parent="1">
          <mxGeometry x="440" y="350" width="100" height="40" as="geometry" />
        </mxCell>
        <mxCell id="bUICLIJ8Ef5RBGcrAFCb-57" value="" style="endArrow=none;html=1;rounded=0;entryX=0.5;entryY=1;entryDx=0;entryDy=0;" edge="1" parent="1" target="bUICLIJ8Ef5RBGcrAFCb-56">
          <mxGeometry width="50" height="50" relative="1" as="geometry">
            <mxPoint x="460" y="450" as="sourcePoint" />
            <mxPoint x="510" y="400" as="targetPoint" />
          </mxGeometry>
        </mxCell>
        <mxCell id="bUICLIJ8Ef5RBGcrAFCb-58" value="" style="endArrow=none;html=1;rounded=0;entryX=0.75;entryY=0.914;entryDx=0;entryDy=0;entryPerimeter=0;exitX=0.25;exitY=0;exitDx=0;exitDy=0;" edge="1" parent="1" source="bUICLIJ8Ef5RBGcrAFCb-1" target="bUICLIJ8Ef5RBGcrAFCb-54">
          <mxGeometry width="50" height="50" relative="1" as="geometry">
            <mxPoint x="460" y="450" as="sourcePoint" />
            <mxPoint x="510" y="400" as="targetPoint" />
          </mxGeometry>
        </mxCell>
        <mxCell id="bUICLIJ8Ef5RBGcrAFCb-59" value="" style="endArrow=none;html=1;rounded=0;entryX=0.5;entryY=1;entryDx=0;entryDy=0;exitX=0.5;exitY=0;exitDx=0;exitDy=0;" edge="1" parent="1" source="bUICLIJ8Ef5RBGcrAFCb-1" target="bUICLIJ8Ef5RBGcrAFCb-55">
          <mxGeometry width="50" height="50" relative="1" as="geometry">
            <mxPoint x="460" y="450" as="sourcePoint" />
            <mxPoint x="510" y="400" as="targetPoint" />
          </mxGeometry>
        </mxCell>
        <mxCell id="bUICLIJ8Ef5RBGcrAFCb-60" value="." style="ellipse;whiteSpace=wrap;html=1;" vertex="1" parent="1">
          <mxGeometry x="670" y="1810" width="120" height="80" as="geometry" />
        </mxCell>
        <mxCell id="bUICLIJ8Ef5RBGcrAFCb-61" value="name" style="ellipse;whiteSpace=wrap;html=1;align=center;fontStyle=4;" vertex="1" parent="1">
          <mxGeometry x="840" y="90" width="100" height="40" as="geometry" />
        </mxCell>
        <mxCell id="bUICLIJ8Ef5RBGcrAFCb-62" value="description" style="ellipse;whiteSpace=wrap;html=1;align=center;fontStyle=4;" vertex="1" parent="1">
          <mxGeometry x="720" y="40" width="100" height="40" as="geometry" />
        </mxCell>
        <mxCell id="bUICLIJ8Ef5RBGcrAFCb-63" value="status" style="ellipse;whiteSpace=wrap;html=1;align=center;fontStyle=4;" vertex="1" parent="1">
          <mxGeometry x="600" y="100" width="100" height="40" as="geometry" />
        </mxCell>
        <mxCell id="bUICLIJ8Ef5RBGcrAFCb-64" value="datetime" style="ellipse;whiteSpace=wrap;html=1;align=center;fontStyle=4;" vertex="1" parent="1">
          <mxGeometry x="880" y="310" width="100" height="40" as="geometry" />
        </mxCell>
        <mxCell id="bUICLIJ8Ef5RBGcrAFCb-65" value="location" style="ellipse;whiteSpace=wrap;html=1;align=center;fontStyle=4;" vertex="1" parent="1">
          <mxGeometry x="860" y="650" width="100" height="40" as="geometry" />
        </mxCell>
        <mxCell id="bUICLIJ8Ef5RBGcrAFCb-66" value="&lt;font color=&quot;#ff3333&quot;&gt;police_id&lt;/font&gt;" style="ellipse;whiteSpace=wrap;html=1;align=center;fontStyle=4;" vertex="1" parent="1">
          <mxGeometry x="1440" y="380" width="100" height="40" as="geometry" />
        </mxCell>
        <mxCell id="bUICLIJ8Ef5RBGcrAFCb-67" value="type" style="ellipse;whiteSpace=wrap;html=1;align=center;fontStyle=4;" vertex="1" parent="1">
          <mxGeometry x="580" y="630" width="100" height="40" as="geometry" />
        </mxCell>
        <mxCell id="bUICLIJ8Ef5RBGcrAFCb-68" value="&lt;font color=&quot;#ff3333&quot;&gt;report_id&lt;/font&gt;" style="ellipse;whiteSpace=wrap;html=1;align=center;fontStyle=4;" vertex="1" parent="1">
          <mxGeometry x="1160" y="378" width="100" height="40" as="geometry" />
        </mxCell>
        <mxCell id="bUICLIJ8Ef5RBGcrAFCb-69" value="details" style="ellipse;whiteSpace=wrap;html=1;align=center;fontStyle=4;" vertex="1" parent="1">
          <mxGeometry x="1010" y="378" width="100" height="40" as="geometry" />
        </mxCell>
        <mxCell id="bUICLIJ8Ef5RBGcrAFCb-70" value="date&amp;nbsp;" style="ellipse;whiteSpace=wrap;html=1;align=center;fontStyle=4;" vertex="1" parent="1">
          <mxGeometry x="1225" y="580" width="100" height="40" as="geometry" />
        </mxCell>
        <mxCell id="bUICLIJ8Ef5RBGcrAFCb-71" value="badge_no" style="ellipse;whiteSpace=wrap;html=1;align=center;fontStyle=4;" vertex="1" parent="1">
          <mxGeometry x="1630" y="448" width="100" height="40" as="geometry" />
        </mxCell>
        <mxCell id="bUICLIJ8Ef5RBGcrAFCb-72" value="contact" style="ellipse;whiteSpace=wrap;html=1;align=center;fontStyle=4;" vertex="1" parent="1">
          <mxGeometry x="1520" y="540" width="100" height="40" as="geometry" />
        </mxCell>
        <mxCell id="bUICLIJ8Ef5RBGcrAFCb-74" value="." style="ellipse;whiteSpace=wrap;html=1;align=center;fontStyle=4;" vertex="1" parent="1">
          <mxGeometry x="1060" y="1620" width="30" height="40" as="geometry" />
        </mxCell>
        <mxCell id="bUICLIJ8Ef5RBGcrAFCb-75" value="&lt;font color=&quot;#ff3333&quot;&gt;criminal_id&lt;/font&gt;" style="ellipse;whiteSpace=wrap;html=1;align=center;fontStyle=4;" vertex="1" parent="1">
          <mxGeometry x="910" y="150" width="100" height="40" as="geometry" />
        </mxCell>
        <mxCell id="bUICLIJ8Ef5RBGcrAFCb-76" value="file_type" style="ellipse;whiteSpace=wrap;html=1;align=center;fontStyle=4;" vertex="1" parent="1">
          <mxGeometry x="1080" y="630" width="100" height="40" as="geometry" />
        </mxCell>
        <mxCell id="bUICLIJ8Ef5RBGcrAFCb-77" value="description" style="ellipse;whiteSpace=wrap;html=1;align=center;fontStyle=4;" vertex="1" parent="1">
          <mxGeometry x="620" y="320" width="100" height="40" as="geometry" />
        </mxCell>
        <mxCell id="bUICLIJ8Ef5RBGcrAFCb-78" value="&lt;font color=&quot;#ff3333&quot;&gt;incident_id&lt;/font&gt;" style="ellipse;whiteSpace=wrap;html=1;align=center;fontStyle=4;" vertex="1" parent="1">
          <mxGeometry x="730" y="640" width="100" height="40" as="geometry" />
        </mxCell>
        <mxCell id="bUICLIJ8Ef5RBGcrAFCb-80" value="" style="endArrow=none;html=1;rounded=0;entryX=0.5;entryY=1;entryDx=0;entryDy=0;exitX=0.5;exitY=0;exitDx=0;exitDy=0;" edge="1" parent="1" source="bUICLIJ8Ef5RBGcrAFCb-12" target="bUICLIJ8Ef5RBGcrAFCb-62">
          <mxGeometry width="50" height="50" relative="1" as="geometry">
            <mxPoint x="1010" y="410" as="sourcePoint" />
            <mxPoint x="1060" y="360" as="targetPoint" />
          </mxGeometry>
        </mxCell>
        <mxCell id="bUICLIJ8Ef5RBGcrAFCb-81" value="" style="endArrow=none;html=1;rounded=0;entryX=0.6;entryY=1.043;entryDx=0;entryDy=0;entryPerimeter=0;exitX=0.5;exitY=0;exitDx=0;exitDy=0;" edge="1" parent="1" source="bUICLIJ8Ef5RBGcrAFCb-12" target="bUICLIJ8Ef5RBGcrAFCb-61">
          <mxGeometry width="50" height="50" relative="1" as="geometry">
            <mxPoint x="1010" y="410" as="sourcePoint" />
            <mxPoint x="1060" y="360" as="targetPoint" />
          </mxGeometry>
        </mxCell>
        <mxCell id="bUICLIJ8Ef5RBGcrAFCb-82" value="" style="endArrow=none;html=1;rounded=0;exitX=0.5;exitY=1;exitDx=0;exitDy=0;entryX=0.357;entryY=0.048;entryDx=0;entryDy=0;entryPerimeter=0;" edge="1" parent="1" source="bUICLIJ8Ef5RBGcrAFCb-77" target="bUICLIJ8Ef5RBGcrAFCb-4">
          <mxGeometry width="50" height="50" relative="1" as="geometry">
            <mxPoint x="1010" y="410" as="sourcePoint" />
            <mxPoint x="1060" y="360" as="targetPoint" />
          </mxGeometry>
        </mxCell>
        <mxCell id="bUICLIJ8Ef5RBGcrAFCb-83" value="" style="endArrow=none;html=1;rounded=0;exitX=0.852;exitY=0.01;exitDx=0;exitDy=0;exitPerimeter=0;entryX=0.394;entryY=1.014;entryDx=0;entryDy=0;entryPerimeter=0;" edge="1" parent="1" source="bUICLIJ8Ef5RBGcrAFCb-4" target="bUICLIJ8Ef5RBGcrAFCb-64">
          <mxGeometry width="50" height="50" relative="1" as="geometry">
            <mxPoint x="1010" y="410" as="sourcePoint" />
            <mxPoint x="1060" y="360" as="targetPoint" />
          </mxGeometry>
        </mxCell>
        <mxCell id="bUICLIJ8Ef5RBGcrAFCb-84" value="" style="endArrow=none;html=1;rounded=0;entryX=0.25;entryY=0;entryDx=0;entryDy=0;exitX=0.5;exitY=1;exitDx=0;exitDy=0;" edge="1" parent="1" source="bUICLIJ8Ef5RBGcrAFCb-69" target="bUICLIJ8Ef5RBGcrAFCb-8">
          <mxGeometry width="50" height="50" relative="1" as="geometry">
            <mxPoint x="1010" y="410" as="sourcePoint" />
            <mxPoint x="1060" y="360" as="targetPoint" />
          </mxGeometry>
        </mxCell>
        <mxCell id="bUICLIJ8Ef5RBGcrAFCb-85" value="" style="endArrow=none;html=1;rounded=0;entryX=0.5;entryY=1;entryDx=0;entryDy=0;exitX=0.5;exitY=0;exitDx=0;exitDy=0;" edge="1" parent="1" source="bUICLIJ8Ef5RBGcrAFCb-8" target="bUICLIJ8Ef5RBGcrAFCb-68">
          <mxGeometry width="50" height="50" relative="1" as="geometry">
            <mxPoint x="1010" y="410" as="sourcePoint" />
            <mxPoint x="1060" y="360" as="targetPoint" />
          </mxGeometry>
        </mxCell>
        <mxCell id="bUICLIJ8Ef5RBGcrAFCb-86" value="" style="endArrow=none;html=1;rounded=0;exitX=0.5;exitY=0;exitDx=0;exitDy=0;entryX=0.5;entryY=1;entryDx=0;entryDy=0;" edge="1" parent="1" source="bUICLIJ8Ef5RBGcrAFCb-16" target="bUICLIJ8Ef5RBGcrAFCb-66">
          <mxGeometry width="50" height="50" relative="1" as="geometry">
            <mxPoint x="1010" y="410" as="sourcePoint" />
            <mxPoint x="1550" y="310" as="targetPoint" />
          </mxGeometry>
        </mxCell>
        <mxCell id="bUICLIJ8Ef5RBGcrAFCb-87" value="" style="endArrow=none;html=1;rounded=0;entryX=1;entryY=0.5;entryDx=0;entryDy=0;exitX=0;exitY=0.5;exitDx=0;exitDy=0;" edge="1" parent="1" source="bUICLIJ8Ef5RBGcrAFCb-71" target="bUICLIJ8Ef5RBGcrAFCb-16">
          <mxGeometry width="50" height="50" relative="1" as="geometry">
            <mxPoint x="1580" y="470" as="sourcePoint" />
            <mxPoint x="1060" y="360" as="targetPoint" />
          </mxGeometry>
        </mxCell>
        <mxCell id="bUICLIJ8Ef5RBGcrAFCb-88" value="" style="endArrow=none;html=1;rounded=0;entryX=0.28;entryY=0.136;entryDx=0;entryDy=0;entryPerimeter=0;exitX=0.5;exitY=1;exitDx=0;exitDy=0;" edge="1" parent="1" source="bUICLIJ8Ef5RBGcrAFCb-16" target="bUICLIJ8Ef5RBGcrAFCb-72">
          <mxGeometry width="50" height="50" relative="1" as="geometry">
            <mxPoint x="1010" y="410" as="sourcePoint" />
            <mxPoint x="1060" y="360" as="targetPoint" />
          </mxGeometry>
        </mxCell>
        <mxCell id="bUICLIJ8Ef5RBGcrAFCb-89" value="" style="endArrow=none;html=1;rounded=0;exitX=0.5;exitY=0;exitDx=0;exitDy=0;entryX=0.75;entryY=1;entryDx=0;entryDy=0;" edge="1" parent="1" source="bUICLIJ8Ef5RBGcrAFCb-70" target="bUICLIJ8Ef5RBGcrAFCb-8">
          <mxGeometry width="50" height="50" relative="1" as="geometry">
            <mxPoint x="1010" y="410" as="sourcePoint" />
            <mxPoint x="1060" y="360" as="targetPoint" />
          </mxGeometry>
        </mxCell>
        <mxCell id="bUICLIJ8Ef5RBGcrAFCb-90" value="" style="endArrow=none;html=1;rounded=0;exitX=0.5;exitY=0;exitDx=0;exitDy=0;entryX=0.5;entryY=1;entryDx=0;entryDy=0;" edge="1" parent="1" source="bUICLIJ8Ef5RBGcrAFCb-76" target="bUICLIJ8Ef5RBGcrAFCb-8">
          <mxGeometry width="50" height="50" relative="1" as="geometry">
            <mxPoint x="1010" y="410" as="sourcePoint" />
            <mxPoint x="1060" y="360" as="targetPoint" />
          </mxGeometry>
        </mxCell>
        <mxCell id="bUICLIJ8Ef5RBGcrAFCb-91" value="." style="endArrow=none;html=1;rounded=0;exitX=0.5;exitY=0;exitDx=0;exitDy=0;" edge="1" parent="1">
          <mxGeometry width="50" height="50" relative="1" as="geometry">
            <mxPoint x="1115" y="2190" as="sourcePoint" />
            <mxPoint x="1180" y="2448.857160295759" as="targetPoint" />
          </mxGeometry>
        </mxCell>
        <mxCell id="bUICLIJ8Ef5RBGcrAFCb-92" value="" style="endArrow=none;html=1;rounded=0;exitX=0.5;exitY=0;exitDx=0;exitDy=0;entryX=0.75;entryY=1;entryDx=0;entryDy=0;" edge="1" parent="1" source="bUICLIJ8Ef5RBGcrAFCb-65" target="bUICLIJ8Ef5RBGcrAFCb-4">
          <mxGeometry width="50" height="50" relative="1" as="geometry">
            <mxPoint x="1010" y="410" as="sourcePoint" />
            <mxPoint x="1060" y="360" as="targetPoint" />
          </mxGeometry>
        </mxCell>
        <mxCell id="bUICLIJ8Ef5RBGcrAFCb-93" value="" style="endArrow=none;html=1;rounded=0;exitX=0.5;exitY=0;exitDx=0;exitDy=0;entryX=0.5;entryY=1;entryDx=0;entryDy=0;" edge="1" parent="1" source="bUICLIJ8Ef5RBGcrAFCb-78" target="bUICLIJ8Ef5RBGcrAFCb-4">
          <mxGeometry width="50" height="50" relative="1" as="geometry">
            <mxPoint x="1010" y="410" as="sourcePoint" />
            <mxPoint x="1060" y="360" as="targetPoint" />
          </mxGeometry>
        </mxCell>
        <mxCell id="bUICLIJ8Ef5RBGcrAFCb-94" value="" style="endArrow=none;html=1;rounded=0;entryX=0.5;entryY=0;entryDx=0;entryDy=0;" edge="1" parent="1" target="bUICLIJ8Ef5RBGcrAFCb-67">
          <mxGeometry width="50" height="50" relative="1" as="geometry">
            <mxPoint x="760" y="510" as="sourcePoint" />
            <mxPoint x="1210" y="330" as="targetPoint" />
          </mxGeometry>
        </mxCell>
        <mxCell id="bUICLIJ8Ef5RBGcrAFCb-97" value="" style="endArrow=none;html=1;rounded=0;exitX=0.5;exitY=1;exitDx=0;exitDy=0;entryX=0.5;entryY=0;entryDx=0;entryDy=0;" edge="1" parent="1" source="bUICLIJ8Ef5RBGcrAFCb-63" target="bUICLIJ8Ef5RBGcrAFCb-12">
          <mxGeometry width="50" height="50" relative="1" as="geometry">
            <mxPoint x="1010" y="410" as="sourcePoint" />
            <mxPoint x="1060" y="360" as="targetPoint" />
          </mxGeometry>
        </mxCell>
        <mxCell id="bUICLIJ8Ef5RBGcrAFCb-98" value="" style="endArrow=none;html=1;rounded=0;entryX=0;entryY=0.5;entryDx=0;entryDy=0;exitX=1;exitY=0.5;exitDx=0;exitDy=0;" edge="1" parent="1" source="bUICLIJ8Ef5RBGcrAFCb-12" target="bUICLIJ8Ef5RBGcrAFCb-75">
          <mxGeometry width="50" height="50" relative="1" as="geometry">
            <mxPoint x="1010" y="410" as="sourcePoint" />
            <mxPoint x="1060" y="360" as="targetPoint" />
          </mxGeometry>
        </mxCell>
        <mxCell id="bUICLIJ8Ef5RBGcrAFCb-99" value="&lt;font color=&quot;#ff3333&quot;&gt;RED &lt;/font&gt;-Primary key" style="text;html=1;align=center;verticalAlign=middle;resizable=0;points=[];autosize=1;strokeColor=none;fillColor=none;" vertex="1" parent="1">
          <mxGeometry x="1560" y="50" width="120" height="30" as="geometry" />
        </mxCell>
      </root>
    </mxGraphModel>
  </diagram>
</mxfile>
